<svg xmlns="http://www.w3.org/2000/svg" viewBox="0 0 169.63 169.63"><defs><style>.cls-1{fill:#fff;}</style></defs><title>logo</title><g id="Layer_2" data-name="Layer 2"><g id="Layer_1-2" data-name="Layer 1"><path class="cls-1" d="M126.68,84.81a32.47,32.47,0,0,0,21-27.75c.08-.89.11-1.78.11-2.69,0-.59,0-1.17,0-1.76a34,34,0,0,0-4.19-.27h-.25a32.47,32.47,0,0,0-32.11,29.78A28.09,28.09,0,0,1,87.59,58.48a32.47,32.47,0,0,0,29.69-32.1v-.25a34,34,0,0,0-.26-4.19c-.56,0-1.11,0-1.67,0-.93,0-1.86,0-2.78.12a32.5,32.5,0,0,0-27.76,21.3A32.49,32.49,0,0,0,57.05,22c-.91-.08-1.84-.12-2.77-.12-.56,0-1.12,0-1.67,0a34,34,0,0,0-.27,4.19,2.09,2.09,0,0,0,0,.25A32.47,32.47,0,0,0,82,58.48,28.07,28.07,0,0,1,58.58,82.1,32.48,32.48,0,0,0,26.29,52.34h-.07a31.55,31.55,0,0,0-4.37.3c0,.57-.05,1.15-.05,1.73,0,.92,0,1.82.12,2.71A32.47,32.47,0,0,0,43,84.81a32.5,32.5,0,0,0-21,27.74c-.08.89-.12,1.79-.12,2.71,0,.58,0,1.16.05,1.73a31.55,31.55,0,0,0,4.37.29h.07A32.47,32.47,0,0,0,58.58,87.53,28.06,28.06,0,0,1,82,111.15a32.47,32.47,0,0,0-29.68,32.1,2.09,2.09,0,0,0,0,.25,33.86,33.86,0,0,0,.27,4.18c.55,0,1.11,0,1.67,0,.93,0,1.86,0,2.77-.12a32.49,32.49,0,0,0,27.76-21.3,32.5,32.5,0,0,0,27.76,21.3c.92.08,1.85.12,2.78.12.56,0,1.11,0,1.67,0a33.87,33.87,0,0,0,.26-4.18v-.25a32.47,32.47,0,0,0-29.69-32.1A28.09,28.09,0,0,1,111.23,87.5a32.47,32.47,0,0,0,32.11,29.78h.25a34,34,0,0,0,4.19-.26c0-.59,0-1.17,0-1.76,0-.91,0-1.8-.11-2.69A32.48,32.48,0,0,0,126.68,84.81ZM26.32,112.87A28.05,28.05,0,0,1,54.17,87.2,28,28,0,0,1,26.32,112.87Zm0-56.11A28,28,0,0,1,54.17,82.43,28.06,28.06,0,0,1,26.32,56.76Zm86.55-30.34A28.07,28.07,0,0,1,87.3,54.08,28.06,28.06,0,0,1,112.87,26.42Zm-56.11,0A28.07,28.07,0,0,1,82.33,54.08,28.06,28.06,0,0,1,56.76,26.42Zm0,116.78a28.06,28.06,0,0,1,25.57-27.65A28,28,0,0,1,56.76,143.2Zm56.11,0A28,28,0,0,1,87.3,115.55,28.06,28.06,0,0,1,112.87,143.2Zm-28.06-39A32.58,32.58,0,0,0,65.6,84.81,32.53,32.53,0,0,0,84.81,65.43,32.55,32.55,0,0,0,104,84.81,32.59,32.59,0,0,0,84.81,104.2Zm58.5-47.44a28.06,28.06,0,0,1-27.68,25.67A28.07,28.07,0,0,1,143.31,56.76ZM115.63,87.2a28.05,28.05,0,0,1,27.68,25.67A28.07,28.07,0,0,1,115.63,87.2Z"/><path class="cls-1" d="M84.81,28.46A6.14,6.14,0,0,0,89.4,26.4C98.19,17.54,86.52,2.21,86,1.57L84.81,0,83.6,1.57c-.5.65-12.14,16-3.37,24.83A6.14,6.14,0,0,0,84.81,28.46Zm0-23.28c2.56,3.94,7.86,13.62,2.38,19.1l-.07.07a3.08,3.08,0,0,1-4.63,0l-.07-.07C77,18.81,82.26,9.13,84.82,5.18Z"/><path class="cls-1" d="M28.46,84.81a6.14,6.14,0,0,0-2.06-4.58C17.54,71.44,2.21,83.1,1.57,83.61L0,84.82,1.57,86c.47.37,8.72,6.64,16.59,6.64A11.3,11.3,0,0,0,26.4,89.4,6.14,6.14,0,0,0,28.46,84.81Zm-4.11,2.32-.07.07c-5.47,5.47-15.16.17-19.1-2.39,3.94-2.56,13.61-7.87,19.1-2.38l.07.07a3.08,3.08,0,0,1,0,4.63Z"/><path class="cls-1" d="M84.81,141.17h0a6.14,6.14,0,0,0-4.58,2.06c-8.79,8.86,2.87,24.18,3.38,24.83l1.21,1.57,1.2-1.57c.5-.65,12.15-16,3.38-24.83A6.14,6.14,0,0,0,84.81,141.17Zm0,23.28c-2.56-3.95-7.86-13.62-2.38-19.1l.07-.07a3.06,3.06,0,0,1,4.63,0l.07.07C92.67,150.82,87.37,160.5,84.81,164.45Z"/><path class="cls-1" d="M168.06,83.6c-.65-.5-16-12.14-24.83-3.37a6.13,6.13,0,0,0,0,9.17,11.28,11.28,0,0,0,8.24,3.27c7.87,0,16.12-6.28,16.59-6.65l1.57-1.21Zm-22.71,3.6-.07-.07a3.06,3.06,0,0,1,0-4.63l.07-.07A8.36,8.36,0,0,1,151.51,80c4.87,0,10.25,3,12.94,4.78C160.51,87.38,150.84,92.69,145.35,87.2Z"/></g></g></svg>