<?xml version="1.0" ?><svg data-name="Layer 1" id="Layer_1" viewBox="0 0 512 512" xmlns="http://www.w3.org/2000/svg"><title/><path d="M179.885,182.329a14.658,14.658,0,1,0,14.657,14.658A14.658,14.658,0,0,0,179.885,182.329Z"/><path d="M250.735,211.645a14.658,14.658,0,1,0-14.658-14.658A14.657,14.657,0,0,0,250.735,211.645Z"/><path d="M284.909,256.673a12.207,12.207,0,1,0,12.207,12.206A12.206,12.206,0,0,0,284.909,256.673Z"/><path d="M256,0C114.615,0,0,114.615,0,256S114.615,512,256,512,512,397.385,512,256,397.385,0,256,0ZM215.31,313.5a124.921,124.921,0,0,1-36.6-5.406,8.817,8.817,0,0,0-7.369,1.024l-23.838,15.395a2.992,2.992,0,0,1-4.523-3.25l5.265-20.738a8.825,8.825,0,0,0-3.3-9.269C123.1,275.1,109.333,251.544,109.333,225.31c0-48.706,47.448-88.19,105.977-88.19,52.846,0,96.654,32.191,104.662,74.295-1.841-.09-3.695-.14-5.562-.14-52.936,0-96,36.422-96,81.191a69.355,69.355,0,0,0,3.222,20.874C219.537,313.442,217.432,313.5,215.31,313.5Zm157.883,33.749a7.754,7.754,0,0,0-2.864,8.134l4,15.758a2.992,2.992,0,0,1-4.523,3.25l-18.616-12.022a7.783,7.783,0,0,0-6.494-.9,104.085,104.085,0,0,1-30.286,4.443c-48.743,0-88.257-32.882-88.257-73.444s39.514-73.444,88.257-73.444,88.256,32.882,88.256,73.444C402.667,314.24,391.28,333.8,373.193,347.249Z"/><path d="M343.912,256.673a12.207,12.207,0,1,0,12.207,12.206A12.206,12.206,0,0,0,343.912,256.673Z"/></svg>